# File created by Blade
# Date/Time:  Tue Sep 30 19:15:20 2014
#---------------------------------------------------------
:version 1.10
:name HOM
:units
  mass 1.0
  length 1.000000
  angle deg
:documentation
     Acclaim Skeleton File
:root
   axis xyz
   order TX TY TZ RX RY RZ
   position 0.000000 0.000000 0.000000
   orientation 0 0 0
:bonedata
   begin
      id 1
      name Spine_dum
      direction 0.000000 1.000000 0.000000
      length 7.508935
      axis 0.0 0.0 0.0 xyz
   end
   begin
      id 2
      name LeftUpLeg_dum
      direction 1.000000 0.000000 0.000000
      length 3.000554
      axis 0.0 0.0 0.0 xyz
   end
   begin
      id 3
      name RightUpLeg_dum
      direction -1.000000 0.000000 0.000000
      length 3.000554
      axis 0.0 0.0 0.0 xyz
   end
   begin
      id 4
      name Spine
      direction 0.000000 1.000000 0.000000
      length 0.000000
      axis 0.0 0.0 0.0 xyz
      dof rx ry rz
   end
   begin
      id 5
      name Spine_dum1
      direction 0.000000 1.000000 0.000000
      length 13.861122
      axis 0.0 0.0 0.0 xyz
   end
   begin
      id 6
      name Spine_dum2
      direction 0.000000 1.000000 0.000000
      length 8.204763
      axis 0.0 0.0 0.0 xyz
   end
   begin
      id 7
      name Spine_dum3
      direction 0.000000 1.000000 0.000000
      length 8.204763
      axis 0.0 0.0 0.0 xyz
   end
   begin
      id 8
      name Head
      direction 0.000000 1.000000 0.000000
      length 4.527541
      axis 0.0 0.0 0.0 xyz
      dof rx ry rz
   end
   begin
      id 9
      name LeftShoulder
      direction 1.000000 0.000000 0.000000
      length 6.635947
      axis 0.0 0.0 0.0 xyz
      dof rx ry rz
   end
   begin
      id 10
      name LeftArm
      direction 1.000000 0.000000 0.000000
      length 10.274200
      axis 0.0 0.0 0.0 xyz
      dof rx ry rz
   end
   begin
      id 11
      name LeftForeArm
      direction 1.000000 0.000000 0.000000
      length 8.522133
      axis 0.0 0.0 0.0 xyz
      dof ry rz rx
   end
   begin
      id 12
      name LeftHand
      direction 0.000000 0.000000 0.000000
      length 0.000000
      axis 0.0 0.0 0.0 xyz
      dof rx ry rz
   end
   begin
      id 13
      name LeftHand_dum1
      direction 0.000000 0.000000 0.000000
      length 0.000000
      axis 0.0 0.0 0.0 xyz
   end
   begin
      id 14
      name LeftHand_dum2
      direction 1.000000 0.000000 0.000000
      length 3.936992
      axis 0.0 0.0 0.0 xyz
   end
   begin
      id 15
      name LeftHandThumb1
      direction 0.000000 0.000000 1.000000
      length 3.936992
      axis 0.0 0.0 0.0 xyz
      dof rx rz ry
   end
   begin
      id 16
      name RightShoulder
      direction -1.000000 0.000000 0.000000
      length 6.635947
      axis 0.0 0.0 0.0 xyz
      dof rx ry rz
   end
   begin
      id 17
      name RightArm
      direction -1.000000 0.000000 0.000000
      length 10.274200
      axis 0.0 0.0 0.0 xyz
      dof rx ry rz
   end
   begin
      id 18
      name RightForeArm
      direction -1.000000 0.000000 0.000000
      length 8.522133
      axis 0.0 0.0 0.0 xyz
      dof ry rz rx
   end
   begin
      id 19
      name RightHand
      direction 0.000000 0.000000 0.000000
      length 0.000000
      axis 0.0 0.0 0.0 xyz
      dof rx ry rz
   end
   begin
      id 20
      name RightHand_dum1
      direction 0.000000 0.000000 0.000000
      length 0.000000
      axis 0.0 0.0 0.0 xyz
   end
   begin
      id 21
      name RightHand_dum2
      direction -1.000000 0.000000 0.000000
      length 3.936992
      axis 0.0 0.0 0.0 xyz
   end
   begin
      id 22
      name RightHandThumb1
      direction 0.000000 0.000000 1.000000
      length 3.936992
      axis 0.0 0.0 0.0 xyz
      dof rx rz ry
   end
   begin
      id 23
      name LeftUpLeg
      direction 0.000000 -1.000000 0.000000
      length 16.490817
      axis 0.0 0.0 0.0 xyz
      dof rx ry rz
   end
   begin
      id 24
      name LeftLeg
      direction 0.000000 -1.000000 0.000000
      length 14.556551
      axis 0.0 0.0 0.0 xyz
      dof rx ry rz
   end
   begin
      id 25
      name LeftFoot
      direction 0.000000 -0.258818 0.965926
      length 4.831105
      axis 0.0 0.0 0.0 xyz
      dof rx ry rz
   end
   begin
      id 26
      name LeftToeBase
      direction 0.000000 0.000000 1.000000
      length 2.952744
      axis 0.0 0.0 0.0 xyz
      dof rx ry rz
   end
   begin
      id 27
      name RightUpLeg
      direction 0.000000 -1.000000 0.000000
      length 16.490817
      axis 0.0 0.0 0.0 xyz
      dof rx ry rz
   end
   begin
      id 28
      name RightLeg
      direction 0.000000 -1.000000 0.000000
      length 14.556551
      axis 0.0 0.0 0.0 xyz
      dof rx ry rz
   end
   begin
      id 29
      name RightFoot
      direction 0.000000 -0.258818 0.965926
      length 4.831105
      axis 0.0 0.0 0.0 xyz
      dof rx ry rz
   end
   begin
      id 30
      name RightToeBase
      direction 0.000000 0.000000 1.000000
      length 2.952744
      axis 0.0 0.0 0.0 xyz
      dof rx ry rz
   end
:hierarchy
   begin
      root Spine_dum LeftUpLeg_dum RightUpLeg_dum
      Spine_dum Spine
      LeftUpLeg_dum LeftUpLeg
      RightUpLeg_dum RightUpLeg
      Spine Spine_dum1 Spine_dum2 Spine_dum3
      Spine_dum1 Head
      Spine_dum2 LeftShoulder
      Spine_dum3 RightShoulder
      LeftShoulder LeftArm
      LeftArm LeftForeArm
      LeftForeArm LeftHand
      LeftHand LeftHand_dum1 LeftHand_dum2
      LeftHand_dum1 LeftHandThumb1
      RightShoulder RightArm
      RightArm RightForeArm
      RightForeArm RightHand
      RightHand RightHand_dum1 RightHand_dum2
      RightHand_dum1 RightHandThumb1
      LeftUpLeg LeftLeg
      LeftLeg LeftFoot
      LeftFoot LeftToeBase
      RightUpLeg RightLeg
      RightLeg RightFoot
      RightFoot RightToeBase
   end

# File created by Blade
# Date/Time:  Tue Sep 30 19:15:05 2014
# Frame Rate: 120.000 fps
#------------------------------------------------------
:FULLY-SPECIFIED
:DEGREES
413
root -2.721395 33.154833 -3.083394 2.386885 27.230369 -5.908221
Spine -7.327344 -5.398890 4.470735
Head -3.577018 -11.673383 14.558325
LeftShoulder 14.316271 7.735084 19.078807
LeftArm -10.135364 -22.570036 -75.795824
LeftForeArm -106.310839 3.278436 -0.958742
LeftHand -0.000056 25.157544 6.815968
LeftHandThumb1 30.357831 13.997178 22.438692
RightShoulder -7.129678 -25.975983 -18.832784
RightArm 20.929715 -20.274788 79.584314
RightForeArm 43.816345 -22.656759 21.873667
RightHand -0.000021 -6.927881 6.958928
RightHandThumb1 30.482666 -12.916435 -20.793814
LeftUpLeg -8.400219 -3.500333 1.612112
LeftLeg 10.223600 -0.000000 -0.000000
LeftFoot -6.704458 -9.558218 -13.062125
LeftToeBase 4.338200 -0.000000 0.000000
RightUpLeg -83.511268 9.881530 -4.298891
RightLeg 115.641800 0.000000 0.000000
RightFoot 11.449782 10.619204 0.286548
RightToeBase -6.685700 -0.000000 0.000000
414
root -2.721195 33.153834 -3.085394 2.431071 27.214796 -5.871653
Spine -7.378202 -5.281774 4.444874
Head -3.536870 -11.664898 14.506334
LeftShoulder 14.402439 7.780945 19.067131
LeftArm -10.289217 -22.483306 -75.852591
LeftForeArm -106.480761 3.250068 -0.960921
LeftHand -0.000014 25.199008 6.745890
LeftHandThumb1 30.357831 13.997178 22.438692
RightShoulder -7.103041 -25.993261 -18.797694
RightArm 21.089073 -20.140865 79.608831
RightForeArm 43.603095 -22.614937 21.986831
RightHand 0.000050 -7.084232 6.706875
RightHandThumb1 30.482666 -12.916435 -20.793814
LeftUpLeg -8.398950 -3.511287 1.584383
LeftLeg 10.156100 -0.000000 -0.000000
LeftFoot -6.669937 -9.532252 -13.068551
LeftToeBase 4.331700 0.000000 0.000000
RightUpLeg -83.476796 9.877755 -4.276178
RightLeg 115.649696 -0.000000 -0.000000
RightFoot 11.451936 10.581972 0.165449
RightToeBase -6.787500 -0.000000 0.000000
415
root -2.720295 33.152434 -3.086994 2.464041 27.202275 -5.832817
Spine -7.407070 -5.189461 4.422443
Head -3.507898 -11.616028 14.437408
LeftShoulder 14.494378 7.862404 19.064662
LeftArm -10.394267 -22.398787 -75.919689
LeftForeArm -106.628203 3.330975 -0.994132
LeftHand -0.000001 25.147276 6.744192
LeftHandThumb1 30.357831 13.997178 22.438692
RightShoulder -7.108164 -25.978918 -18.777858
RightArm 21.277472 -20.059071 79.646672
RightForeArm 43.508315 -22.458453 21.921883
RightHand 0.000005 -6.840490 7.226245
RightHandThumb1 30.482666 -12.916435 -20.793814
LeftUpLeg -8.385593 -3.548781 1.550861
LeftLeg 10.096400 -0.000000 -0.000000
LeftFoot -6.666341 -9.503919 -13.091003
LeftToeBase 4.374900 -0.000000 0.000000
RightUpLeg -83.438757 9.866412 -4.256663
RightLeg 115.662598 -0.000000 -0.000000
RightFoot 11.459278 10.506678 0.267315
RightToeBase -6.554700 -0.000000 0.000000
416
root -2.720794 33.150934 -3.085394 2.488815 27.157972 -5.794730
Spine -7.427375 -5.037849 4.383322
Head -3.499161 -11.585294 14.392716
LeftShoulder 14.566798 7.912490 19.052573
LeftArm -10.552401 -22.274940 -75.916861
LeftForeArm -106.837275 3.124551 -0.945022
LeftHand -0.000005 25.009170 6.196668
LeftHandThumb1 30.357831 13.997178 22.438692
RightShoulder -7.104103 -25.999854 -18.755716
RightArm 21.450574 -19.967552 79.691875
RightForeArm 43.338583 -22.380683 21.974397
RightHand -0.000038 -6.837046 7.172276
RightHandThumb1 30.482666 -12.916435 -20.793814
LeftUpLeg -8.351802 -3.534882 1.522718
LeftLeg 10.029600 0.000000 0.000000
LeftFoot -6.689896 -9.465974 -13.084275
LeftToeBase 4.472600 -0.000000 0.000000
RightUpLeg -83.399389 9.896046 -4.241326
RightLeg 115.687302 -0.000000 0.000000
RightFoot 11.448489 10.462169 0.449524
RightToeBase -6.265000 -0.000000 -0.000000
417
root -2.721195 33.149332 -3.087094 2.520982 27.153661 -5.764697
Spine -7.464923 -4.927922 4.365806
Head -3.496041 -11.547454 14.331487
LeftShoulder 14.630740 7.960643 19.043007
LeftArm -10.663741 -22.132084 -75.878634
LeftForeArm -107.018955 3.075441 -0.940833
LeftHand 0.000059 25.107991 6.320657
LeftHandThumb1 30.357831 13.997178 22.438692
RightShoulder -7.111690 -25.994538 -18.720085
RightArm 21.610623 -19.892080 79.714012
RightForeArm 43.220003 -22.333913 22.017416
RightHand -0.000023 -6.817709 7.132934
RightHandThumb1 30.482666 -12.916435 -20.793814
LeftUpLeg -8.354426 -3.560895 1.499245
LeftLeg 9.989600 -0.000000 -0.000000
LeftFoot -6.667132 -9.440522 -13.154209
LeftToeBase 4.433500 -0.000000 0.000000
RightUpLeg -83.367690 9.878044 -4.227035
RightLeg 115.708702 0.000000 0.000000
RightFoot 11.436892 10.422390 0.521212
RightToeBase -6.070300 -0.000000 0.000000
418
root -2.723094 33.147635 -3.089694 2.535269 27.170100 -5.743276
Spine -7.464183 -4.835944 4.351698
Head -3.517715 -11.503829 14.288784
LeftShoulder 14.738853 8.029727 19.055472
LeftArm -10.752132 -22.051589 -75.897807
LeftForeArm -107.217627 2.911938 -0.901914
LeftHand -0.000029 24.989816 6.216164
LeftHandThumb1 30.357831 13.997178 22.438692
RightShoulder -7.104726 -26.018171 -18.682799
RightArm 21.809793 -19.745909 79.737302
RightForeArm 43.093604 -22.189659 21.983004
RightHand -0.000022 -6.805969 7.055044
RightHandThumb1 30.482666 -12.916435 -20.793814
LeftUpLeg -8.352019 -3.631288 1.488849
LeftLeg 9.962200 -0.000000 -0.000000
LeftFoot -6.663625 -9.410856 -13.186665
LeftToeBase 4.440400 0.000000 0.000000
RightUpLeg -83.315085 9.842498 -4.188838
RightLeg 115.725899 0.000000 0.000000
RightFoot 11.478036 10.405602 0.392113
RightToeBase -6.374100 -0.000000 -0.000000
419
root -2.723495 33.145533 -3.092694 2.556953 27.199971 -5.705067
Spine -7.461379 -4.760139 4.327359
Head -3.556975 -11.459026 14.228528
LeftShoulder 14.846882 8.102246 19.049618
LeftArm -10.880313 -21.957931 -75.864362
LeftForeArm -107.431787 2.787640 -0.874879
LeftHand -0.000045 24.940407 6.002572
LeftHandThumb1 30.357831 13.997178 22.438692
RightShoulder -7.122098 -26.007207 -18.666187
RightArm 21.958606 -19.666544 79.783128
RightForeArm 42.974505 -22.189203 22.065616
RightHand 0.000041 -6.728462 7.277968
RightHandThumb1 30.482666 -12.916435 -20.793814
LeftUpLeg -8.363852 -3.704347 1.458537
LeftLeg 9.964000 -0.000000 -0.000000
LeftFoot -6.674391 -9.379133 -13.185395
LeftToeBase 4.490900 -0.000000 -0.000000
RightUpLeg -83.264086 9.780550 -4.168235
RightLeg 115.751701 -0.000000 -0.000000
RightFoot 11.511388 10.405064 0.320314
RightToeBase -6.635800 -0.000000 0.000000
420
root -2.729295 33.144434 -3.098494 2.572323 27.210510 -5.708785
Spine -7.443221 -4.658681 4.337574
Head -3.651493 -11.427897 14.187018
LeftShoulder 14.956828 8.172542 19.036942
LeftArm -11.015103 -21.852409 -75.796018
LeftForeArm -107.672244 2.589627 -0.824735
LeftHand -0.000033 24.866824 5.885911
LeftHandThumb1 30.357831 13.997178 22.438692
RightShoulder -7.209375 -26.000859 -18.609648
RightArm 22.120899 -19.614615 79.807233
RightForeArm 42.874016 -22.139555 22.093354
RightHand -0.000047 -6.793559 7.388248
RightHandThumb1 30.482666 -12.916435 -20.793814
LeftUpLeg -8.407387 -3.763139 1.473443
LeftLeg 9.990800 0.000000 0.000000
LeftFoot -6.715267 -9.339275 -13.154715
LeftToeBase 4.536900 -0.000000 -0.000000
RightUpLeg -83.230315 9.748390 -4.104425
RightLeg 115.767899 -0.000000 -0.000000
RightFoot 11.497067 10.356374 0.280361
RightToeBase -6.563700 -0.000000 0.000000
421
root -2.733094 33.143034 -3.102594 2.582614 27.230441 -5.697401
Spine -7.420699 -4.563039 4.334329
Head -3.728052 -11.395941 14.134377
LeftShoulder 15.087589 8.257892 19.040031
LeftArm -11.133771 -21.755813 -75.745720
LeftForeArm -107.920831 2.562902 -0.828490
LeftHand -0.000009 24.829640 5.610641
LeftHandThumb1 30.357831 13.997178 22.438692
RightShoulder -7.222104 -25.997946 -18.598095
RightArm 22.304875 -19.513192 79.877417
RightForeArm 42.701558 -22.262668 22.319960
RightHand -0.000044 -6.837236 7.356298
RightHandThumb1 30.482666 -12.916435 -20.793814
LeftUpLeg -8.432840 -3.813450 1.472309
LeftLeg 10.016700 -0.000000 0.000000
LeftFoot -6.758364 -9.312848 -13.143150
LeftToeBase 4.643500 -0.000000 0.000000
RightUpLeg -83.186735 9.695646 -4.047640
RightLeg 115.785896 -0.000000 -0.000000
RightFoot 11.459276 10.238267 0.486759
RightToeBase -6.240100 -0.000000 0.000000
422
root -2.737094 33.142634 -3.104894 2.602887 27.268440 -5.696385
Spine -7.428821 -4.467635 4.349513
Head -3.804646 -11.383074 14.055861
LeftShoulder 15.217157 8.348948 19.014109
LeftArm -11.246576 -21.643554 -75.675586
LeftForeArm -108.193669 2.300194 -0.755737
LeftHand 0.000034 24.779364 5.624383
LeftHandThumb1 30.357831 13.997178 22.438692
RightShoulder -7.188310 -26.013574 -18.591056
RightArm 22.508687 -19.379254 79.908358
RightForeArm 42.610907 -22.249250 22.372399
RightHand 0.000026 -6.745859 7.334926
RightHandThumb1 30.482666 -12.916435 -20.793814
LeftUpLeg -8.474825 -3.877551 1.483605
LeftLeg 10.028700 -0.000000 0.000000
LeftFoot -6.721760 -9.306095 -13.234793
LeftToeBase 4.535700 -0.000000 0.000000
RightUpLeg -83.155648 9.630294 -4.024222
RightLeg 115.812798 0.000000 0.000000
RightFoot 11.449910 10.213211 0.716460
RightToeBase -6.059000 -0.000000 0.000000
423
root -2.741894 33.141035 -3.110194 2.602421 27.260054 -5.680219
Spine -7.368014 -4.330333 4.318161
Head -3.950741 -11.355931 14.064659
LeftShoulder 15.460526 8.489307 19.030662
LeftArm -11.354369 -21.692463 -75.615647
LeftForeArm -108.439113 2.226061 -0.741972
LeftHand -0.000053 24.712041 5.249299
LeftHandThumb1 30.357831 13.997178 22.438692
RightShoulder -7.196024 -26.022230 -18.533788
RightArm 22.730934 -19.224461 79.944159
RightForeArm 42.560737 -22.147096 22.319776
RightHand 0.000000 -6.861954 7.298020
RightHandThumb1 30.482666 -12.916435 -20.793814
LeftUpLeg -8.491460 -3.885528 1.474377
LeftLeg 10.060400 0.000000 0.000000
LeftFoot -6.745463 -9.294797 -13.273212
LeftToeBase 4.579100 -0.000000 0.000000
RightUpLeg -83.109606 9.611588 -3.995765
RightLeg 115.825897 -0.000000 0.000000
RightFoot 11.373286 10.114629 0.938180
RightToeBase -5.592000 -0.000000 0.000000
424
root -2.746094 33.139933 -3.114394 2.618321 27.252586 -5.665223
Spine -7.327984 -4.183408 4.289718
Head -4.107855 -11.311725 14.073113
LeftShoulder 15.701731 8.667332 19.036247
LeftArm -11.421467 -21.760564 -75.564369
LeftForeArm -108.681221 2.018824 -0.682423
LeftHand -0.000058 24.632674 5.127052
LeftHandThumb1 30.357831 13.997178 22.438692
RightShoulder -7.194680 -26.027455 -18.484656
RightArm 22.896892 -19.100261 79.983237
RightForeArm 42.505484 -22.102463 22.320176
RightHand -0.000036 -6.774390 7.242133
RightHandThumb1 30.482666 -12.916435 -20.793814
LeftUpLeg -8.518387 -3.881701 1.469384
LeftLeg 10.081300 -0.000000 -0.000000
LeftFoot -6.757024 -9.305204 -13.307511
LeftToeBase 4.601700 -0.000000 -0.000000
RightUpLeg -83.078364 9.591963 -4.000109
RightLeg 115.849701 -0.000000 0.000000
RightFoot 11.388964 10.063414 1.106323
RightToeBase -5.706600 -0.000000 -0.000000
425
root -2.751194 33.139334 -3.118794 2.627977 27.239876 -5.655629
Spine -7.290230 -4.017043 4.264478
Head -4.239555 -11.287661 14.075134
LeftShoulder 15.972018 8.821300 19.046710
LeftArm -11.531104 -21.824928 -75.524222
LeftForeArm -108.950547 1.954489 -0.670937
LeftHand 0.000020 24.649078 4.961640
LeftHandThumb1 30.357831 13.997178 22.438692
RightShoulder -7.215389 -25.993815 -18.439341
RightArm 23.048629 -19.010338 80.028291
RightForeArm 42.446215 -22.069571 22.333508
RightHand -0.000030 -6.762154 7.206060
RightHandThumb1 30.482666 -12.916435 -20.793814
LeftUpLeg -8.539996 -3.855272 1.465991
LeftLeg 10.101500 -0.000000 -0.000000
LeftFoot -6.774549 -9.335220 -13.303577
LeftToeBase 4.574500 -0.000000 0.000000
RightUpLeg -83.039628 9.579558 -3.987110
RightLeg 115.871498 -0.000000 -0.000000
RightFoot 11.389504 10.019445 1.142373
RightToeBase -5.600800 -0.000000 -0.000000
